<mxfile host="app.diagrams.net" modified="2023-12-31T21:44:24.491Z" agent="Mozilla/5.0 (Windows NT 10.0; Win64; x64) AppleWebKit/537.36 (KHTML, like Gecko) Chrome/120.0.0.0 Safari/537.36 Edg/120.0.0.0" etag="aSApSxdaqaTGsLq1I0nD" version="22.1.16" type="device">
  <diagram name="Página-1" id="Oj9ayjaeTDPIYrlOQbrX">
    <mxGraphModel dx="2555" dy="1620" grid="1" gridSize="10" guides="1" tooltips="1" connect="1" arrows="1" fold="1" page="1" pageScale="1" pageWidth="1169" pageHeight="827" background="#ffffff" math="0" shadow="0">
      <root>
        <mxCell id="0" />
        <mxCell id="1" parent="0" />
        <mxCell id="N02JDObSmD6Pd7DJaybr-1" value="Piso" style="rounded=1;arcSize=0;whiteSpace=wrap;html=1;align=center;" parent="1" vertex="1">
          <mxGeometry x="-221" y="-337" width="100" height="40" as="geometry" />
        </mxCell>
        <mxCell id="N02JDObSmD6Pd7DJaybr-2" value="Loja" style="rounded=1;arcSize=10;whiteSpace=wrap;html=1;align=center;" parent="1" vertex="1">
          <mxGeometry x="78.30999999999995" y="-335" width="100" height="40" as="geometry" />
        </mxCell>
        <mxCell id="N02JDObSmD6Pd7DJaybr-4" value="contém" style="shape=rhombus;perimeter=rhombusPerimeter;whiteSpace=wrap;html=1;align=center;" parent="1" vertex="1">
          <mxGeometry x="-58" y="-336" width="78" height="39" as="geometry" />
        </mxCell>
        <mxCell id="N02JDObSmD6Pd7DJaybr-13" value="" style="endArrow=none;html=1;rounded=0;entryX=0;entryY=0.5;entryDx=0;entryDy=0;exitX=1;exitY=0.5;exitDx=0;exitDy=0;" parent="1" source="N02JDObSmD6Pd7DJaybr-4" target="N02JDObSmD6Pd7DJaybr-2" edge="1">
          <mxGeometry relative="1" as="geometry">
            <mxPoint x="22" y="-326" as="sourcePoint" />
            <mxPoint x="-78" y="-316" as="targetPoint" />
          </mxGeometry>
        </mxCell>
        <mxCell id="N02JDObSmD6Pd7DJaybr-14" value="N" style="resizable=0;html=1;whiteSpace=wrap;align=right;verticalAlign=bottom;" parent="N02JDObSmD6Pd7DJaybr-13" connectable="0" vertex="1">
          <mxGeometry x="1" relative="1" as="geometry" />
        </mxCell>
        <mxCell id="N02JDObSmD6Pd7DJaybr-15" value="" style="endArrow=none;html=1;rounded=0;entryX=1;entryY=0.5;entryDx=0;entryDy=0;exitX=0;exitY=0.5;exitDx=0;exitDy=0;" parent="1" source="N02JDObSmD6Pd7DJaybr-4" target="N02JDObSmD6Pd7DJaybr-1" edge="1">
          <mxGeometry relative="1" as="geometry">
            <mxPoint x="-238" y="-316" as="sourcePoint" />
            <mxPoint x="-78" y="-316" as="targetPoint" />
          </mxGeometry>
        </mxCell>
        <mxCell id="N02JDObSmD6Pd7DJaybr-16" value="1" style="resizable=0;html=1;whiteSpace=wrap;align=right;verticalAlign=bottom;" parent="N02JDObSmD6Pd7DJaybr-15" connectable="0" vertex="1">
          <mxGeometry x="1" relative="1" as="geometry">
            <mxPoint x="10" as="offset" />
          </mxGeometry>
        </mxCell>
        <mxCell id="N02JDObSmD6Pd7DJaybr-18" value="Categoria" style="rounded=1;arcSize=0;whiteSpace=wrap;html=1;align=center;" parent="1" vertex="1">
          <mxGeometry x="367.80999999999995" y="-337" width="100" height="40" as="geometry" />
        </mxCell>
        <mxCell id="N02JDObSmD6Pd7DJaybr-23" value="pertence" style="shape=rhombus;perimeter=rhombusPerimeter;whiteSpace=wrap;html=1;align=center;" parent="1" vertex="1">
          <mxGeometry x="232" y="-335" width="78" height="39" as="geometry" />
        </mxCell>
        <mxCell id="N02JDObSmD6Pd7DJaybr-24" value="" style="endArrow=none;html=1;rounded=0;entryX=0;entryY=0.5;entryDx=0;entryDy=0;exitX=1;exitY=0.5;exitDx=0;exitDy=0;" parent="1" source="N02JDObSmD6Pd7DJaybr-23" target="N02JDObSmD6Pd7DJaybr-18" edge="1">
          <mxGeometry relative="1" as="geometry">
            <mxPoint x="332" y="-266" as="sourcePoint" />
            <mxPoint x="332" y="-246" as="targetPoint" />
          </mxGeometry>
        </mxCell>
        <mxCell id="N02JDObSmD6Pd7DJaybr-25" value="1" style="resizable=0;html=1;whiteSpace=wrap;align=right;verticalAlign=bottom;" parent="N02JDObSmD6Pd7DJaybr-24" connectable="0" vertex="1">
          <mxGeometry x="1" relative="1" as="geometry" />
        </mxCell>
        <mxCell id="N02JDObSmD6Pd7DJaybr-26" value="" style="endArrow=none;html=1;rounded=0;exitX=0;exitY=0.5;exitDx=0;exitDy=0;entryX=1;entryY=0.5;entryDx=0;entryDy=0;" parent="1" source="N02JDObSmD6Pd7DJaybr-23" target="N02JDObSmD6Pd7DJaybr-2" edge="1">
          <mxGeometry relative="1" as="geometry">
            <mxPoint x="172" y="-246" as="sourcePoint" />
            <mxPoint x="332" y="-246" as="targetPoint" />
          </mxGeometry>
        </mxCell>
        <mxCell id="N02JDObSmD6Pd7DJaybr-27" value="N" style="resizable=0;html=1;whiteSpace=wrap;align=right;verticalAlign=bottom;" parent="N02JDObSmD6Pd7DJaybr-26" connectable="0" vertex="1">
          <mxGeometry x="1" relative="1" as="geometry">
            <mxPoint x="11" as="offset" />
          </mxGeometry>
        </mxCell>
        <mxCell id="N02JDObSmD6Pd7DJaybr-28" value="Anuncios" style="rounded=1;arcSize=10;whiteSpace=wrap;html=1;align=center;" parent="1" vertex="1">
          <mxGeometry x="-107.94999999999999" y="-256" width="100" height="40" as="geometry" />
        </mxCell>
        <mxCell id="N02JDObSmD6Pd7DJaybr-31" value="contém" style="shape=rhombus;perimeter=rhombusPerimeter;whiteSpace=wrap;html=1;align=center;" parent="1" vertex="1">
          <mxGeometry x="32" y="-256" width="78" height="39" as="geometry" />
        </mxCell>
        <mxCell id="N02JDObSmD6Pd7DJaybr-32" value="contém" style="shape=rhombus;perimeter=rhombusPerimeter;whiteSpace=wrap;html=1;align=center;" parent="1" vertex="1">
          <mxGeometry x="-210" y="-257" width="78" height="39" as="geometry" />
        </mxCell>
        <mxCell id="N02JDObSmD6Pd7DJaybr-33" value="" style="endArrow=none;html=1;rounded=0;exitX=0.5;exitY=1;exitDx=0;exitDy=0;entryX=0.5;entryY=0;entryDx=0;entryDy=0;" parent="1" source="N02JDObSmD6Pd7DJaybr-1" target="N02JDObSmD6Pd7DJaybr-32" edge="1">
          <mxGeometry relative="1" as="geometry">
            <mxPoint x="-58" y="-316" as="sourcePoint" />
            <mxPoint x="102" y="-316" as="targetPoint" />
          </mxGeometry>
        </mxCell>
        <mxCell id="N02JDObSmD6Pd7DJaybr-34" value="1" style="resizable=0;html=1;whiteSpace=wrap;align=right;verticalAlign=bottom;" parent="N02JDObSmD6Pd7DJaybr-33" connectable="0" vertex="1">
          <mxGeometry x="1" relative="1" as="geometry">
            <mxPoint x="-2" y="-23" as="offset" />
          </mxGeometry>
        </mxCell>
        <mxCell id="N02JDObSmD6Pd7DJaybr-41" value="" style="endArrow=none;html=1;rounded=0;entryX=0;entryY=0.5;entryDx=0;entryDy=0;exitX=1;exitY=0.5;exitDx=0;exitDy=0;" parent="1" source="N02JDObSmD6Pd7DJaybr-32" target="N02JDObSmD6Pd7DJaybr-28" edge="1">
          <mxGeometry relative="1" as="geometry">
            <mxPoint x="-58" y="-316" as="sourcePoint" />
            <mxPoint x="102" y="-316" as="targetPoint" />
          </mxGeometry>
        </mxCell>
        <mxCell id="N02JDObSmD6Pd7DJaybr-42" value="N" style="resizable=0;html=1;whiteSpace=wrap;align=right;verticalAlign=bottom;" parent="N02JDObSmD6Pd7DJaybr-41" connectable="0" vertex="1">
          <mxGeometry x="1" relative="1" as="geometry">
            <mxPoint x="-2" as="offset" />
          </mxGeometry>
        </mxCell>
        <mxCell id="N02JDObSmD6Pd7DJaybr-43" value="" style="endArrow=none;html=1;rounded=0;exitX=0.25;exitY=1;exitDx=0;exitDy=0;entryX=0.5;entryY=0;entryDx=0;entryDy=0;" parent="1" source="N02JDObSmD6Pd7DJaybr-2" target="N02JDObSmD6Pd7DJaybr-31" edge="1">
          <mxGeometry relative="1" as="geometry">
            <mxPoint x="126" y="-297" as="sourcePoint" />
            <mxPoint x="126" y="-257" as="targetPoint" />
          </mxGeometry>
        </mxCell>
        <mxCell id="N02JDObSmD6Pd7DJaybr-44" value="1" style="resizable=0;html=1;whiteSpace=wrap;align=right;verticalAlign=bottom;" parent="N02JDObSmD6Pd7DJaybr-43" connectable="0" vertex="1">
          <mxGeometry x="1" relative="1" as="geometry">
            <mxPoint x="12" y="-23" as="offset" />
          </mxGeometry>
        </mxCell>
        <mxCell id="N02JDObSmD6Pd7DJaybr-45" value="" style="endArrow=none;html=1;rounded=0;exitX=0;exitY=0.5;exitDx=0;exitDy=0;entryX=1;entryY=0.5;entryDx=0;entryDy=0;" parent="1" source="N02JDObSmD6Pd7DJaybr-31" target="N02JDObSmD6Pd7DJaybr-28" edge="1">
          <mxGeometry relative="1" as="geometry">
            <mxPoint x="-24.950000000000045" y="-233" as="sourcePoint" />
            <mxPoint x="39.049999999999955" y="-233" as="targetPoint" />
          </mxGeometry>
        </mxCell>
        <mxCell id="N02JDObSmD6Pd7DJaybr-46" value="N" style="resizable=0;html=1;whiteSpace=wrap;align=right;verticalAlign=bottom;" parent="N02JDObSmD6Pd7DJaybr-45" connectable="0" vertex="1">
          <mxGeometry x="1" relative="1" as="geometry">
            <mxPoint x="14" as="offset" />
          </mxGeometry>
        </mxCell>
        <mxCell id="N02JDObSmD6Pd7DJaybr-48" value="têm" style="shape=rhombus;perimeter=rhombusPerimeter;whiteSpace=wrap;html=1;align=center;" parent="1" vertex="1">
          <mxGeometry x="253.5" y="285" width="78" height="39" as="geometry" />
        </mxCell>
        <mxCell id="N02JDObSmD6Pd7DJaybr-49" value="Evento" style="rounded=1;arcSize=10;whiteSpace=wrap;html=1;align=center;" parent="1" vertex="1">
          <mxGeometry x="-221" y="-519" width="100" height="40" as="geometry" />
        </mxCell>
        <mxCell id="N02JDObSmD6Pd7DJaybr-50" value="Funcionários" style="rounded=1;arcSize=0;whiteSpace=wrap;html=1;align=center;" parent="1" vertex="1">
          <mxGeometry x="-368" y="184" width="100" height="40" as="geometry" />
        </mxCell>
        <mxCell id="N02JDObSmD6Pd7DJaybr-51" value="está" style="shape=rhombus;perimeter=rhombusPerimeter;whiteSpace=wrap;html=1;align=center;" parent="1" vertex="1">
          <mxGeometry x="-357" y="-257" width="78" height="39" as="geometry" />
        </mxCell>
        <mxCell id="N02JDObSmD6Pd7DJaybr-52" value="" style="endArrow=none;html=1;rounded=0;entryX=0.5;entryY=0;entryDx=0;entryDy=0;exitX=0.5;exitY=1;exitDx=0;exitDy=0;" parent="1" source="N02JDObSmD6Pd7DJaybr-51" target="N02JDObSmD6Pd7DJaybr-50" edge="1">
          <mxGeometry relative="1" as="geometry">
            <mxPoint x="-307.5" y="84" as="sourcePoint" />
            <mxPoint x="-77.5" y="216" as="targetPoint" />
          </mxGeometry>
        </mxCell>
        <mxCell id="N02JDObSmD6Pd7DJaybr-53" value="N" style="resizable=0;html=1;whiteSpace=wrap;align=right;verticalAlign=bottom;" parent="N02JDObSmD6Pd7DJaybr-52" connectable="0" vertex="1">
          <mxGeometry x="1" relative="1" as="geometry">
            <mxPoint x="12" as="offset" />
          </mxGeometry>
        </mxCell>
        <mxCell id="N02JDObSmD6Pd7DJaybr-54" value="" style="endArrow=none;html=1;rounded=0;entryX=0;entryY=1;entryDx=0;entryDy=0;exitX=0.5;exitY=0;exitDx=0;exitDy=0;" parent="1" source="N02JDObSmD6Pd7DJaybr-51" target="N02JDObSmD6Pd7DJaybr-1" edge="1">
          <mxGeometry relative="1" as="geometry">
            <mxPoint x="-358" y="-296" as="sourcePoint" />
            <mxPoint x="-198" y="-296" as="targetPoint" />
          </mxGeometry>
        </mxCell>
        <mxCell id="N02JDObSmD6Pd7DJaybr-55" value="1" style="resizable=0;html=1;whiteSpace=wrap;align=right;verticalAlign=bottom;" parent="N02JDObSmD6Pd7DJaybr-54" connectable="0" vertex="1">
          <mxGeometry x="1" relative="1" as="geometry" />
        </mxCell>
        <mxCell id="N02JDObSmD6Pd7DJaybr-74" value="está" style="shape=rhombus;perimeter=rhombusPerimeter;whiteSpace=wrap;html=1;align=center;" parent="1" vertex="1">
          <mxGeometry x="-210" y="-416" width="78" height="39" as="geometry" />
        </mxCell>
        <mxCell id="N02JDObSmD6Pd7DJaybr-75" value="" style="endArrow=none;html=1;rounded=0;exitX=0.5;exitY=1;exitDx=0;exitDy=0;entryX=0.5;entryY=0;entryDx=0;entryDy=0;" parent="1" source="N02JDObSmD6Pd7DJaybr-74" target="N02JDObSmD6Pd7DJaybr-1" edge="1">
          <mxGeometry relative="1" as="geometry">
            <mxPoint x="-108" y="-336" as="sourcePoint" />
            <mxPoint x="52" y="-336" as="targetPoint" />
          </mxGeometry>
        </mxCell>
        <mxCell id="N02JDObSmD6Pd7DJaybr-76" value="1" style="resizable=0;html=1;whiteSpace=wrap;align=right;verticalAlign=bottom;" parent="N02JDObSmD6Pd7DJaybr-75" connectable="0" vertex="1">
          <mxGeometry x="1" relative="1" as="geometry" />
        </mxCell>
        <mxCell id="N02JDObSmD6Pd7DJaybr-77" value="" style="endArrow=none;html=1;rounded=0;exitX=0.5;exitY=0;exitDx=0;exitDy=0;entryX=0.5;entryY=1;entryDx=0;entryDy=0;" parent="1" source="N02JDObSmD6Pd7DJaybr-74" target="N02JDObSmD6Pd7DJaybr-49" edge="1">
          <mxGeometry relative="1" as="geometry">
            <mxPoint x="-108" y="-336" as="sourcePoint" />
            <mxPoint x="52" y="-336" as="targetPoint" />
          </mxGeometry>
        </mxCell>
        <mxCell id="N02JDObSmD6Pd7DJaybr-78" value="N" style="resizable=0;html=1;whiteSpace=wrap;align=right;verticalAlign=bottom;" parent="N02JDObSmD6Pd7DJaybr-77" connectable="0" vertex="1">
          <mxGeometry x="1" relative="1" as="geometry">
            <mxPoint y="16" as="offset" />
          </mxGeometry>
        </mxCell>
        <mxCell id="N02JDObSmD6Pd7DJaybr-79" value="contém" style="shape=rhombus;perimeter=rhombusPerimeter;whiteSpace=wrap;html=1;align=center;" parent="1" vertex="1">
          <mxGeometry x="-68" y="-426" width="78" height="39" as="geometry" />
        </mxCell>
        <mxCell id="N02JDObSmD6Pd7DJaybr-82" value="" style="endArrow=none;html=1;rounded=0;entryX=0;entryY=0;entryDx=0;entryDy=0;exitX=1;exitY=0.5;exitDx=0;exitDy=0;" parent="1" source="N02JDObSmD6Pd7DJaybr-79" target="N02JDObSmD6Pd7DJaybr-2" edge="1">
          <mxGeometry relative="1" as="geometry">
            <mxPoint x="12" y="-386" as="sourcePoint" />
            <mxPoint x="172" y="-386" as="targetPoint" />
          </mxGeometry>
        </mxCell>
        <mxCell id="N02JDObSmD6Pd7DJaybr-83" value="1" style="resizable=0;html=1;whiteSpace=wrap;align=right;verticalAlign=bottom;" parent="N02JDObSmD6Pd7DJaybr-82" connectable="0" vertex="1">
          <mxGeometry x="1" relative="1" as="geometry">
            <mxPoint x="8" as="offset" />
          </mxGeometry>
        </mxCell>
        <mxCell id="N02JDObSmD6Pd7DJaybr-84" value="" style="endArrow=none;html=1;rounded=0;entryX=1;entryY=0.5;entryDx=0;entryDy=0;exitX=0;exitY=0.5;exitDx=0;exitDy=0;" parent="1" source="N02JDObSmD6Pd7DJaybr-79" target="N02JDObSmD6Pd7DJaybr-49" edge="1">
          <mxGeometry relative="1" as="geometry">
            <mxPoint x="-82" y="-447" as="sourcePoint" />
            <mxPoint x="78" y="-447" as="targetPoint" />
          </mxGeometry>
        </mxCell>
        <mxCell id="N02JDObSmD6Pd7DJaybr-85" value="N" style="resizable=0;html=1;whiteSpace=wrap;align=right;verticalAlign=bottom;" parent="N02JDObSmD6Pd7DJaybr-84" connectable="0" vertex="1">
          <mxGeometry x="1" relative="1" as="geometry">
            <mxPoint x="11" y="6" as="offset" />
          </mxGeometry>
        </mxCell>
        <mxCell id="Q1WShy8X6w7Z_u-XjVrB-4" value="" style="triangle;whiteSpace=wrap;html=1;rotation=-90;" parent="1" vertex="1">
          <mxGeometry x="-348" y="266" width="60" height="80" as="geometry" />
        </mxCell>
        <mxCell id="Q1WShy8X6w7Z_u-XjVrB-5" value="" style="endArrow=none;html=1;rounded=0;exitX=0.5;exitY=1;exitDx=0;exitDy=0;entryX=1;entryY=0.5;entryDx=0;entryDy=0;" parent="1" source="N02JDObSmD6Pd7DJaybr-50" target="Q1WShy8X6w7Z_u-XjVrB-4" edge="1">
          <mxGeometry relative="1" as="geometry">
            <mxPoint x="-289.5" y="256" as="sourcePoint" />
            <mxPoint x="-129.5" y="256" as="targetPoint" />
          </mxGeometry>
        </mxCell>
        <mxCell id="Q1WShy8X6w7Z_u-XjVrB-6" value="Tecnicos" style="rounded=1;arcSize=0;whiteSpace=wrap;html=1;align=center;" parent="1" vertex="1">
          <mxGeometry x="-468" y="374" width="100" height="40" as="geometry" />
        </mxCell>
        <mxCell id="Q1WShy8X6w7Z_u-XjVrB-7" value="Administradores" style="rounded=1;arcSize=0;whiteSpace=wrap;html=1;align=center;" parent="1" vertex="1">
          <mxGeometry x="-239.5" y="376" width="100" height="40" as="geometry" />
        </mxCell>
        <mxCell id="Q1WShy8X6w7Z_u-XjVrB-8" value="" style="endArrow=none;html=1;rounded=0;exitX=0.5;exitY=0;exitDx=0;exitDy=0;entryX=0.005;entryY=0.007;entryDx=0;entryDy=0;entryPerimeter=0;" parent="1" source="Q1WShy8X6w7Z_u-XjVrB-6" target="Q1WShy8X6w7Z_u-XjVrB-4" edge="1">
          <mxGeometry relative="1" as="geometry">
            <mxPoint x="-297.5" y="226" as="sourcePoint" />
            <mxPoint x="-297.5" y="286" as="targetPoint" />
          </mxGeometry>
        </mxCell>
        <mxCell id="Q1WShy8X6w7Z_u-XjVrB-9" value="" style="endArrow=none;html=1;rounded=0;exitX=0;exitY=1;exitDx=0;exitDy=0;entryX=0.5;entryY=0;entryDx=0;entryDy=0;exitPerimeter=0;" parent="1" source="Q1WShy8X6w7Z_u-XjVrB-4" target="Q1WShy8X6w7Z_u-XjVrB-7" edge="1">
          <mxGeometry relative="1" as="geometry">
            <mxPoint x="-289.5" y="366" as="sourcePoint" />
            <mxPoint x="-216.5" y="336" as="targetPoint" />
          </mxGeometry>
        </mxCell>
        <mxCell id="Q1WShy8X6w7Z_u-XjVrB-11" value="faz" style="shape=rhombus;perimeter=rhombusPerimeter;whiteSpace=wrap;html=1;align=center;" parent="1" vertex="1">
          <mxGeometry x="-607.5" y="377" width="78" height="39" as="geometry" />
        </mxCell>
        <mxCell id="Q1WShy8X6w7Z_u-XjVrB-12" value="Atividades" style="rounded=1;arcSize=0;whiteSpace=wrap;html=1;align=center;" parent="1" vertex="1">
          <mxGeometry x="-769.5" y="375.5" width="100" height="40" as="geometry" />
        </mxCell>
        <mxCell id="Q1WShy8X6w7Z_u-XjVrB-13" value="" style="endArrow=none;html=1;rounded=0;entryX=0;entryY=0.5;entryDx=0;entryDy=0;exitX=1;exitY=0.5;exitDx=0;exitDy=0;" parent="1" source="Q1WShy8X6w7Z_u-XjVrB-11" target="Q1WShy8X6w7Z_u-XjVrB-6" edge="1">
          <mxGeometry relative="1" as="geometry">
            <mxPoint x="-687.5" y="376.5" as="sourcePoint" />
            <mxPoint x="-527.5" y="376.5" as="targetPoint" />
          </mxGeometry>
        </mxCell>
        <mxCell id="Q1WShy8X6w7Z_u-XjVrB-14" value="N" style="resizable=0;html=1;whiteSpace=wrap;align=right;verticalAlign=bottom;" parent="Q1WShy8X6w7Z_u-XjVrB-13" connectable="0" vertex="1">
          <mxGeometry x="1" relative="1" as="geometry" />
        </mxCell>
        <mxCell id="Q1WShy8X6w7Z_u-XjVrB-18" value="" style="endArrow=none;html=1;rounded=0;entryX=1;entryY=0.5;entryDx=0;entryDy=0;exitX=0;exitY=0.5;exitDx=0;exitDy=0;" parent="1" source="Q1WShy8X6w7Z_u-XjVrB-11" target="Q1WShy8X6w7Z_u-XjVrB-12" edge="1">
          <mxGeometry relative="1" as="geometry">
            <mxPoint x="-687.5" y="376.5" as="sourcePoint" />
            <mxPoint x="-527.5" y="376.5" as="targetPoint" />
          </mxGeometry>
        </mxCell>
        <mxCell id="Q1WShy8X6w7Z_u-XjVrB-19" value="N" style="resizable=0;html=1;whiteSpace=wrap;align=right;verticalAlign=bottom;" parent="Q1WShy8X6w7Z_u-XjVrB-18" connectable="0" vertex="1">
          <mxGeometry x="1" relative="1" as="geometry">
            <mxPoint x="12" as="offset" />
          </mxGeometry>
        </mxCell>
        <mxCell id="Q1WShy8X6w7Z_u-XjVrB-21" value="" style="endArrow=none;html=1;rounded=0;entryX=1;entryY=0.5;entryDx=0;entryDy=0;exitX=0;exitY=0.5;exitDx=0;exitDy=0;" parent="1" source="Q1WShy8X6w7Z_u-XjVrB-23" target="Q1WShy8X6w7Z_u-XjVrB-7" edge="1">
          <mxGeometry relative="1" as="geometry">
            <mxPoint x="-39.5" y="396" as="sourcePoint" />
            <mxPoint x="-29.5" y="276" as="targetPoint" />
          </mxGeometry>
        </mxCell>
        <mxCell id="Q1WShy8X6w7Z_u-XjVrB-22" value="1" style="resizable=0;html=1;whiteSpace=wrap;align=right;verticalAlign=bottom;" parent="Q1WShy8X6w7Z_u-XjVrB-21" connectable="0" vertex="1">
          <mxGeometry x="1" relative="1" as="geometry">
            <mxPoint x="9" as="offset" />
          </mxGeometry>
        </mxCell>
        <mxCell id="Q1WShy8X6w7Z_u-XjVrB-23" value="fazem" style="shape=rhombus;perimeter=rhombusPerimeter;whiteSpace=wrap;html=1;align=center;" parent="1" vertex="1">
          <mxGeometry x="-69.5" y="376" width="78" height="39" as="geometry" />
        </mxCell>
        <mxCell id="Q1WShy8X6w7Z_u-XjVrB-25" value="Contratos" style="rounded=1;arcSize=0;whiteSpace=wrap;html=1;align=center;" parent="1" vertex="1">
          <mxGeometry x="86.5" y="376" width="100" height="40" as="geometry" />
        </mxCell>
        <mxCell id="Q1WShy8X6w7Z_u-XjVrB-26" value="" style="endArrow=none;html=1;rounded=0;entryX=0;entryY=0.5;entryDx=0;entryDy=0;exitX=1;exitY=0.5;exitDx=0;exitDy=0;" parent="1" source="Q1WShy8X6w7Z_u-XjVrB-23" target="Q1WShy8X6w7Z_u-XjVrB-25" edge="1">
          <mxGeometry relative="1" as="geometry">
            <mxPoint x="-79.5" y="286" as="sourcePoint" />
            <mxPoint x="80.5" y="286" as="targetPoint" />
          </mxGeometry>
        </mxCell>
        <mxCell id="Q1WShy8X6w7Z_u-XjVrB-27" value="N" style="resizable=0;html=1;whiteSpace=wrap;align=right;verticalAlign=bottom;" parent="Q1WShy8X6w7Z_u-XjVrB-26" connectable="0" vertex="1">
          <mxGeometry x="1" relative="1" as="geometry" />
        </mxCell>
        <mxCell id="Q1WShy8X6w7Z_u-XjVrB-28" value="" style="endArrow=none;html=1;rounded=0;entryX=0.5;entryY=1;entryDx=0;entryDy=0;exitX=0.5;exitY=0;exitDx=0;exitDy=0;" parent="1" source="Q1WShy8X6w7Z_u-XjVrB-30" target="N02JDObSmD6Pd7DJaybr-2" edge="1">
          <mxGeometry relative="1" as="geometry">
            <mxPoint x="180" y="-76" as="sourcePoint" />
            <mxPoint x="170" y="-76" as="targetPoint" />
          </mxGeometry>
        </mxCell>
        <mxCell id="Q1WShy8X6w7Z_u-XjVrB-29" value="N" style="resizable=0;html=1;whiteSpace=wrap;align=right;verticalAlign=bottom;" parent="Q1WShy8X6w7Z_u-XjVrB-28" connectable="0" vertex="1">
          <mxGeometry x="1" relative="1" as="geometry">
            <mxPoint y="17" as="offset" />
          </mxGeometry>
        </mxCell>
        <mxCell id="Q1WShy8X6w7Z_u-XjVrB-30" value="fazem" style="shape=rhombus;perimeter=rhombusPerimeter;whiteSpace=wrap;html=1;align=center;" parent="1" vertex="1">
          <mxGeometry x="100" y="-69" width="78" height="39" as="geometry" />
        </mxCell>
        <mxCell id="Q1WShy8X6w7Z_u-XjVrB-31" value="" style="endArrow=none;html=1;rounded=0;exitX=0.5;exitY=1;exitDx=0;exitDy=0;entryX=0.5;entryY=0;entryDx=0;entryDy=0;" parent="1" source="Q1WShy8X6w7Z_u-XjVrB-30" target="Q1WShy8X6w7Z_u-XjVrB-25" edge="1">
          <mxGeometry relative="1" as="geometry">
            <mxPoint x="20.5" y="266" as="sourcePoint" />
            <mxPoint x="50.5" y="276" as="targetPoint" />
          </mxGeometry>
        </mxCell>
        <mxCell id="Q1WShy8X6w7Z_u-XjVrB-32" value="1" style="resizable=0;html=1;whiteSpace=wrap;align=right;verticalAlign=bottom;" parent="Q1WShy8X6w7Z_u-XjVrB-31" connectable="0" vertex="1">
          <mxGeometry x="1" relative="1" as="geometry" />
        </mxCell>
        <mxCell id="Q1WShy8X6w7Z_u-XjVrB-33" value="Pagamentos" style="rounded=1;arcSize=0;whiteSpace=wrap;html=1;align=center;" parent="1" vertex="1">
          <mxGeometry x="368" y="184" width="100" height="40" as="geometry" />
        </mxCell>
        <mxCell id="Q1WShy8X6w7Z_u-XjVrB-34" value="" style="endArrow=none;html=1;rounded=0;entryX=1;entryY=0;entryDx=0;entryDy=0;exitX=0;exitY=1;exitDx=0;exitDy=0;" parent="1" source="N02JDObSmD6Pd7DJaybr-48" target="Q1WShy8X6w7Z_u-XjVrB-25" edge="1">
          <mxGeometry relative="1" as="geometry">
            <mxPoint x="50.5" y="446" as="sourcePoint" />
            <mxPoint x="210.5" y="446" as="targetPoint" />
          </mxGeometry>
        </mxCell>
        <mxCell id="Q1WShy8X6w7Z_u-XjVrB-35" value="1" style="resizable=0;html=1;whiteSpace=wrap;align=right;verticalAlign=bottom;" parent="Q1WShy8X6w7Z_u-XjVrB-34" connectable="0" vertex="1">
          <mxGeometry x="1" relative="1" as="geometry">
            <mxPoint x="1" as="offset" />
          </mxGeometry>
        </mxCell>
        <mxCell id="Q1WShy8X6w7Z_u-XjVrB-36" value="" style="endArrow=none;html=1;rounded=0;entryX=0.25;entryY=1;entryDx=0;entryDy=0;exitX=1;exitY=0;exitDx=0;exitDy=0;" parent="1" source="N02JDObSmD6Pd7DJaybr-48" target="Q1WShy8X6w7Z_u-XjVrB-33" edge="1">
          <mxGeometry relative="1" as="geometry">
            <mxPoint x="350.5" y="276" as="sourcePoint" />
            <mxPoint x="207.54999999999995" y="467" as="targetPoint" />
          </mxGeometry>
        </mxCell>
        <mxCell id="Q1WShy8X6w7Z_u-XjVrB-37" value="N" style="resizable=0;html=1;whiteSpace=wrap;align=right;verticalAlign=bottom;" parent="Q1WShy8X6w7Z_u-XjVrB-36" connectable="0" vertex="1">
          <mxGeometry x="1" relative="1" as="geometry">
            <mxPoint x="10" y="17" as="offset" />
          </mxGeometry>
        </mxCell>
        <mxCell id="5osrd9gTb2x5Zmav5zE7-4" value="" style="endArrow=none;html=1;rounded=0;entryX=1;entryY=0.75;entryDx=0;entryDy=0;exitX=0;exitY=0;exitDx=0;exitDy=0;" parent="1" source="DGbAVhqVMQCF2uaafGu9-1" target="N02JDObSmD6Pd7DJaybr-50" edge="1">
          <mxGeometry relative="1" as="geometry">
            <mxPoint x="-109.5" y="166" as="sourcePoint" />
            <mxPoint x="50.5" y="166" as="targetPoint" />
          </mxGeometry>
        </mxCell>
        <mxCell id="5osrd9gTb2x5Zmav5zE7-5" value="N" style="resizable=0;html=1;whiteSpace=wrap;align=right;verticalAlign=bottom;" parent="5osrd9gTb2x5Zmav5zE7-4" connectable="0" vertex="1">
          <mxGeometry x="1" relative="1" as="geometry">
            <mxPoint x="11" as="offset" />
          </mxGeometry>
        </mxCell>
        <mxCell id="DGbAVhqVMQCF2uaafGu9-1" value="fazem" style="shape=rhombus;perimeter=rhombusPerimeter;whiteSpace=wrap;html=1;align=center;" parent="1" vertex="1">
          <mxGeometry x="-126" y="266" width="78" height="39" as="geometry" />
        </mxCell>
        <mxCell id="DGbAVhqVMQCF2uaafGu9-3" value="" style="endArrow=none;html=1;rounded=0;exitX=1;exitY=1;exitDx=0;exitDy=0;entryX=0.25;entryY=0;entryDx=0;entryDy=0;" parent="1" source="DGbAVhqVMQCF2uaafGu9-1" target="Q1WShy8X6w7Z_u-XjVrB-25" edge="1">
          <mxGeometry relative="1" as="geometry">
            <mxPoint x="199.5" y="225" as="sourcePoint" />
            <mxPoint x="171.5" y="386" as="targetPoint" />
          </mxGeometry>
        </mxCell>
        <mxCell id="DGbAVhqVMQCF2uaafGu9-4" value="1" style="resizable=0;html=1;whiteSpace=wrap;align=right;verticalAlign=bottom;" parent="DGbAVhqVMQCF2uaafGu9-3" connectable="0" vertex="1">
          <mxGeometry x="1" relative="1" as="geometry">
            <mxPoint x="-6" y="-3" as="offset" />
          </mxGeometry>
        </mxCell>
        <mxCell id="DGbAVhqVMQCF2uaafGu9-5" value="Categoria pagamentos" style="rounded=1;arcSize=0;whiteSpace=wrap;html=1;align=center;" parent="1" vertex="1">
          <mxGeometry x="378.30999999999995" y="375" width="100" height="40" as="geometry" />
        </mxCell>
        <mxCell id="DGbAVhqVMQCF2uaafGu9-6" value="pertence" style="shape=rhombus;perimeter=rhombusPerimeter;whiteSpace=wrap;html=1;align=center;" parent="1" vertex="1">
          <mxGeometry x="230.5" y="377" width="78" height="39" as="geometry" />
        </mxCell>
        <mxCell id="DGbAVhqVMQCF2uaafGu9-7" value="" style="endArrow=none;html=1;rounded=0;entryX=0;entryY=0.5;entryDx=0;entryDy=0;exitX=1;exitY=0.5;exitDx=0;exitDy=0;" parent="1" source="DGbAVhqVMQCF2uaafGu9-6" target="DGbAVhqVMQCF2uaafGu9-5" edge="1">
          <mxGeometry relative="1" as="geometry">
            <mxPoint x="352.5" y="46" as="sourcePoint" />
            <mxPoint x="388.5" y="-5" as="targetPoint" />
          </mxGeometry>
        </mxCell>
        <mxCell id="DGbAVhqVMQCF2uaafGu9-8" value="1" style="resizable=0;html=1;whiteSpace=wrap;align=right;verticalAlign=bottom;" parent="DGbAVhqVMQCF2uaafGu9-7" connectable="0" vertex="1">
          <mxGeometry x="1" relative="1" as="geometry" />
        </mxCell>
        <mxCell id="DGbAVhqVMQCF2uaafGu9-9" value="" style="endArrow=none;html=1;rounded=0;exitX=0;exitY=0.5;exitDx=0;exitDy=0;entryX=1;entryY=0.5;entryDx=0;entryDy=0;" parent="1" source="DGbAVhqVMQCF2uaafGu9-6" target="Q1WShy8X6w7Z_u-XjVrB-25" edge="1">
          <mxGeometry relative="1" as="geometry">
            <mxPoint x="192.5" y="66" as="sourcePoint" />
            <mxPoint x="196.5" y="-4" as="targetPoint" />
          </mxGeometry>
        </mxCell>
        <mxCell id="DGbAVhqVMQCF2uaafGu9-10" value="N" style="resizable=0;html=1;whiteSpace=wrap;align=right;verticalAlign=bottom;" parent="DGbAVhqVMQCF2uaafGu9-9" connectable="0" vertex="1">
          <mxGeometry x="1" relative="1" as="geometry">
            <mxPoint x="11" as="offset" />
          </mxGeometry>
        </mxCell>
        <mxCell id="6uutaqwq0sgEfD3VKp7t-1" value="idpiso" style="ellipse;whiteSpace=wrap;html=1;fontStyle=4" parent="1" vertex="1">
          <mxGeometry x="-354.5" y="-366" width="77" height="60" as="geometry" />
        </mxCell>
        <mxCell id="6uutaqwq0sgEfD3VKp7t-3" value="donodeloja" style="ellipse;whiteSpace=wrap;html=1;" parent="1" vertex="1">
          <mxGeometry x="241.5" y="-406" width="90" height="57" as="geometry" />
        </mxCell>
        <mxCell id="6uutaqwq0sgEfD3VKp7t-5" value="idcategoria" style="ellipse;whiteSpace=wrap;html=1;fontStyle=4" parent="1" vertex="1">
          <mxGeometry x="152.5" y="-646" width="90" height="57" as="geometry" />
        </mxCell>
        <mxCell id="6uutaqwq0sgEfD3VKp7t-6" value="idloja" style="ellipse;whiteSpace=wrap;html=1;fontStyle=4" parent="1" vertex="1">
          <mxGeometry x="62.5" y="-636" width="90" height="57" as="geometry" />
        </mxCell>
        <mxCell id="6uutaqwq0sgEfD3VKp7t-7" value="idcontrato" style="ellipse;whiteSpace=wrap;html=1;fontStyle=4" parent="1" vertex="1">
          <mxGeometry x="206.5" y="-599" width="90" height="57" as="geometry" />
        </mxCell>
        <mxCell id="6uutaqwq0sgEfD3VKp7t-8" value="idpiso" style="ellipse;whiteSpace=wrap;html=1;fontStyle=4" parent="1" vertex="1">
          <mxGeometry x="210" y="-475" width="90" height="57" as="geometry" />
        </mxCell>
        <mxCell id="6uutaqwq0sgEfD3VKp7t-9" value="nome" style="ellipse;whiteSpace=wrap;html=1;" parent="1" vertex="1">
          <mxGeometry x="206.5" y="-536" width="90" height="57" as="geometry" />
        </mxCell>
        <mxCell id="6uutaqwq0sgEfD3VKp7t-10" value="idcategora" style="ellipse;whiteSpace=wrap;html=1;fontStyle=4" parent="1" vertex="1">
          <mxGeometry x="520" y="-387" width="90" height="57" as="geometry" />
        </mxCell>
        <mxCell id="6uutaqwq0sgEfD3VKp7t-11" value="nome" style="ellipse;whiteSpace=wrap;html=1;" parent="1" vertex="1">
          <mxGeometry x="520" y="-297" width="90" height="57" as="geometry" />
        </mxCell>
        <mxCell id="6uutaqwq0sgEfD3VKp7t-12" value="&lt;u&gt;idpagamentos&lt;/u&gt;" style="ellipse;whiteSpace=wrap;html=1;" parent="1" vertex="1">
          <mxGeometry x="611" y="-69" width="90" height="57" as="geometry" />
        </mxCell>
        <mxCell id="6uutaqwq0sgEfD3VKp7t-13" value="&lt;u&gt;idcontrato&lt;/u&gt;" style="ellipse;whiteSpace=wrap;html=1;" parent="1" vertex="1">
          <mxGeometry x="610" y="4" width="90" height="57" as="geometry" />
        </mxCell>
        <mxCell id="6uutaqwq0sgEfD3VKp7t-14" value="idanuncio" style="ellipse;whiteSpace=wrap;html=1;fontStyle=4" parent="1" vertex="1">
          <mxGeometry x="-110.50000000000006" y="-16" width="90" height="57" as="geometry" />
        </mxCell>
        <mxCell id="6uutaqwq0sgEfD3VKp7t-15" value="idpiso" style="ellipse;whiteSpace=wrap;html=1;fontStyle=4" parent="1" vertex="1">
          <mxGeometry x="-211" y="-196" width="90" height="57" as="geometry" />
        </mxCell>
        <mxCell id="6uutaqwq0sgEfD3VKp7t-16" value="idloja" style="ellipse;whiteSpace=wrap;html=1;fontStyle=4" parent="1" vertex="1">
          <mxGeometry x="-210" y="-56" width="90" height="57" as="geometry" />
        </mxCell>
        <mxCell id="6uutaqwq0sgEfD3VKp7t-17" value="nome" style="ellipse;whiteSpace=wrap;html=1;" parent="1" vertex="1">
          <mxGeometry x="-216" y="-126" width="90" height="57" as="geometry" />
        </mxCell>
        <mxCell id="6uutaqwq0sgEfD3VKp7t-18" value="conteudo" style="ellipse;whiteSpace=wrap;html=1;" parent="1" vertex="1">
          <mxGeometry x="-3.5" y="-126" width="90" height="57" as="geometry" />
        </mxCell>
        <mxCell id="6uutaqwq0sgEfD3VKp7t-19" value="custo" style="ellipse;whiteSpace=wrap;html=1;" parent="1" vertex="1">
          <mxGeometry x="10" y="-196" width="90" height="57" as="geometry" />
        </mxCell>
        <mxCell id="6uutaqwq0sgEfD3VKp7t-20" value="datadepublicacao" style="ellipse;whiteSpace=wrap;html=1;" parent="1" vertex="1">
          <mxGeometry x="-11.690000000000055" y="-56" width="90" height="57" as="geometry" />
        </mxCell>
        <mxCell id="6uutaqwq0sgEfD3VKp7t-21" value="idfuncionario" style="ellipse;whiteSpace=wrap;html=1;fontStyle=4" parent="1" vertex="1">
          <mxGeometry x="-476.75" y="114" width="90" height="57" as="geometry" />
        </mxCell>
        <mxCell id="6uutaqwq0sgEfD3VKp7t-22" value="idatividade" style="ellipse;whiteSpace=wrap;html=1;fontStyle=4" parent="1" vertex="1">
          <mxGeometry x="-890" y="334" width="90" height="57" as="geometry" />
        </mxCell>
        <mxCell id="6uutaqwq0sgEfD3VKp7t-23" value="nome" style="ellipse;whiteSpace=wrap;html=1;" parent="1" vertex="1">
          <mxGeometry x="-890" y="415" width="90" height="57" as="geometry" />
        </mxCell>
        <mxCell id="6uutaqwq0sgEfD3VKp7t-25" value="nome" style="ellipse;whiteSpace=wrap;html=1;" parent="1" vertex="1">
          <mxGeometry x="-550" y="559" width="90" height="57" as="geometry" />
        </mxCell>
        <mxCell id="6uutaqwq0sgEfD3VKp7t-26" value="datadenascimento" style="ellipse;whiteSpace=wrap;html=1;" parent="1" vertex="1">
          <mxGeometry x="-550" y="625.5" width="109.5" height="57" as="geometry" />
        </mxCell>
        <mxCell id="6uutaqwq0sgEfD3VKp7t-27" value="telemovel" style="ellipse;whiteSpace=wrap;html=1;" parent="1" vertex="1">
          <mxGeometry x="-480.25" y="682.5" width="90" height="57" as="geometry" />
        </mxCell>
        <mxCell id="6uutaqwq0sgEfD3VKp7t-28" value="nif" style="ellipse;whiteSpace=wrap;html=1;" parent="1" vertex="1">
          <mxGeometry x="-408.25" y="721" width="90" height="57" as="geometry" />
        </mxCell>
        <mxCell id="6uutaqwq0sgEfD3VKp7t-29" value="idtecnico" style="ellipse;whiteSpace=wrap;html=1;fontStyle=4" parent="1" vertex="1">
          <mxGeometry x="-550" y="499" width="90" height="57" as="geometry" />
        </mxCell>
        <mxCell id="6uutaqwq0sgEfD3VKp7t-30" value="nome" style="ellipse;whiteSpace=wrap;html=1;" parent="1" vertex="1">
          <mxGeometry x="-170" y="499" width="90" height="57" as="geometry" />
        </mxCell>
        <mxCell id="6uutaqwq0sgEfD3VKp7t-31" value="datadenascimento" style="ellipse;whiteSpace=wrap;html=1;" parent="1" vertex="1">
          <mxGeometry x="-244.5" y="546" width="110" height="57" as="geometry" />
        </mxCell>
        <mxCell id="6uutaqwq0sgEfD3VKp7t-32" value="telemovel" style="ellipse;whiteSpace=wrap;html=1;" parent="1" vertex="1">
          <mxGeometry x="-301" y="499" width="90" height="57" as="geometry" />
        </mxCell>
        <mxCell id="6uutaqwq0sgEfD3VKp7t-33" value="nif" style="ellipse;whiteSpace=wrap;html=1;" parent="1" vertex="1">
          <mxGeometry x="-329.5" y="434" width="90" height="57" as="geometry" />
        </mxCell>
        <mxCell id="6uutaqwq0sgEfD3VKp7t-34" value="idadministrador" style="ellipse;whiteSpace=wrap;html=1;fontStyle=4" parent="1" vertex="1">
          <mxGeometry x="-148" y="434" width="90" height="57" as="geometry" />
        </mxCell>
        <mxCell id="6uutaqwq0sgEfD3VKp7t-35" value="idcontrato" style="ellipse;whiteSpace=wrap;html=1;fontStyle=4" parent="1" vertex="1">
          <mxGeometry x="186.5" y="442" width="90" height="57" as="geometry" />
        </mxCell>
        <mxCell id="6uutaqwq0sgEfD3VKp7t-37" value="idadministrador" style="ellipse;whiteSpace=wrap;html=1;fontStyle=4" parent="1" vertex="1">
          <mxGeometry x="152.5" y="574" width="90" height="57" as="geometry" />
        </mxCell>
        <mxCell id="6uutaqwq0sgEfD3VKp7t-38" value="datainicio" style="ellipse;whiteSpace=wrap;html=1;" parent="1" vertex="1">
          <mxGeometry x="40" y="574" width="90" height="57" as="geometry" />
        </mxCell>
        <mxCell id="6uutaqwq0sgEfD3VKp7t-39" value="datatermino" style="ellipse;whiteSpace=wrap;html=1;" parent="1" vertex="1">
          <mxGeometry x="10" y="508" width="90" height="57" as="geometry" />
        </mxCell>
        <mxCell id="6uutaqwq0sgEfD3VKp7t-40" value="valor" style="ellipse;whiteSpace=wrap;html=1;" parent="1" vertex="1">
          <mxGeometry x="10" y="442" width="90" height="57" as="geometry" />
        </mxCell>
        <mxCell id="6uutaqwq0sgEfD3VKp7t-41" value="idcategoriapag" style="ellipse;whiteSpace=wrap;html=1;fontStyle=4" parent="1" vertex="1">
          <mxGeometry x="520" y="324" width="100" height="57" as="geometry" />
        </mxCell>
        <mxCell id="6uutaqwq0sgEfD3VKp7t-42" value="idcategoria" style="ellipse;whiteSpace=wrap;html=1;fontStyle=4" parent="1" vertex="1">
          <mxGeometry x="178.30999999999995" y="508" width="90" height="57" as="geometry" />
        </mxCell>
        <mxCell id="6uutaqwq0sgEfD3VKp7t-43" value="nome" style="ellipse;whiteSpace=wrap;html=1;" parent="1" vertex="1">
          <mxGeometry x="520" y="404" width="90" height="57" as="geometry" />
        </mxCell>
        <mxCell id="6uutaqwq0sgEfD3VKp7t-44" value="idevento" style="ellipse;whiteSpace=wrap;html=1;fontStyle=4" parent="1" vertex="1">
          <mxGeometry x="-357.5" y="-666" width="90" height="57" as="geometry" />
        </mxCell>
        <mxCell id="6uutaqwq0sgEfD3VKp7t-45" value="idpiso" style="ellipse;whiteSpace=wrap;html=1;fontStyle=4" parent="1" vertex="1">
          <mxGeometry x="-320" y="-723" width="90" height="57" as="geometry" />
        </mxCell>
        <mxCell id="6uutaqwq0sgEfD3VKp7t-46" value="idloja" style="ellipse;whiteSpace=wrap;html=1;fontStyle=4" parent="1" vertex="1">
          <mxGeometry x="-280" y="-780" width="90" height="57" as="geometry" />
        </mxCell>
        <mxCell id="6uutaqwq0sgEfD3VKp7t-48" value="nome" style="ellipse;whiteSpace=wrap;html=1;" parent="1" vertex="1">
          <mxGeometry x="-150" y="-780" width="90" height="57" as="geometry" />
        </mxCell>
        <mxCell id="6uutaqwq0sgEfD3VKp7t-50" value="local" style="ellipse;whiteSpace=wrap;html=1;" parent="1" vertex="1">
          <mxGeometry x="-102.94999999999999" y="-723" width="90" height="57" as="geometry" />
        </mxCell>
        <mxCell id="6uutaqwq0sgEfD3VKp7t-51" value="hora" style="ellipse;whiteSpace=wrap;html=1;" parent="1" vertex="1">
          <mxGeometry x="-81.5" y="-663" width="90" height="57" as="geometry" />
        </mxCell>
        <mxCell id="6uutaqwq0sgEfD3VKp7t-52" value="" style="endArrow=none;html=1;rounded=0;entryX=0;entryY=0.5;entryDx=0;entryDy=0;exitX=1;exitY=0;exitDx=0;exitDy=0;" parent="1" source="6uutaqwq0sgEfD3VKp7t-23" target="Q1WShy8X6w7Z_u-XjVrB-12" edge="1">
          <mxGeometry width="50" height="50" relative="1" as="geometry">
            <mxPoint x="-809.5" y="580" as="sourcePoint" />
            <mxPoint x="-759.5" y="530" as="targetPoint" />
          </mxGeometry>
        </mxCell>
        <mxCell id="6uutaqwq0sgEfD3VKp7t-53" value="" style="endArrow=none;html=1;rounded=0;entryX=0;entryY=0.5;entryDx=0;entryDy=0;exitX=1;exitY=1;exitDx=0;exitDy=0;" parent="1" source="6uutaqwq0sgEfD3VKp7t-22" target="Q1WShy8X6w7Z_u-XjVrB-12" edge="1">
          <mxGeometry width="50" height="50" relative="1" as="geometry">
            <mxPoint x="-829.5" y="489" as="sourcePoint" />
            <mxPoint x="-759.5" y="425" as="targetPoint" />
          </mxGeometry>
        </mxCell>
        <mxCell id="6uutaqwq0sgEfD3VKp7t-54" value="" style="endArrow=none;html=1;rounded=0;entryX=0.5;entryY=1;entryDx=0;entryDy=0;exitX=1;exitY=0;exitDx=0;exitDy=0;" parent="1" source="6uutaqwq0sgEfD3VKp7t-29" target="Q1WShy8X6w7Z_u-XjVrB-6" edge="1">
          <mxGeometry width="50" height="50" relative="1" as="geometry">
            <mxPoint x="-819.5" y="499" as="sourcePoint" />
            <mxPoint x="-749.5" y="435" as="targetPoint" />
          </mxGeometry>
        </mxCell>
        <mxCell id="6uutaqwq0sgEfD3VKp7t-56" value="" style="endArrow=none;html=1;rounded=0;entryX=0.5;entryY=1;entryDx=0;entryDy=0;exitX=1;exitY=0;exitDx=0;exitDy=0;" parent="1" source="6uutaqwq0sgEfD3VKp7t-25" target="Q1WShy8X6w7Z_u-XjVrB-6" edge="1">
          <mxGeometry width="50" height="50" relative="1" as="geometry">
            <mxPoint x="-514.5" y="476" as="sourcePoint" />
            <mxPoint x="-422.5" y="427" as="targetPoint" />
          </mxGeometry>
        </mxCell>
        <mxCell id="6uutaqwq0sgEfD3VKp7t-57" value="" style="endArrow=none;html=1;rounded=0;entryX=0.5;entryY=1;entryDx=0;entryDy=0;exitX=1;exitY=0;exitDx=0;exitDy=0;" parent="1" source="6uutaqwq0sgEfD3VKp7t-26" target="Q1WShy8X6w7Z_u-XjVrB-6" edge="1">
          <mxGeometry width="50" height="50" relative="1" as="geometry">
            <mxPoint x="-544.5" y="576" as="sourcePoint" />
            <mxPoint x="-422.5" y="427" as="targetPoint" />
          </mxGeometry>
        </mxCell>
        <mxCell id="6uutaqwq0sgEfD3VKp7t-58" value="" style="endArrow=none;html=1;rounded=0;entryX=0.5;entryY=1;entryDx=0;entryDy=0;exitX=1;exitY=0;exitDx=0;exitDy=0;" parent="1" source="6uutaqwq0sgEfD3VKp7t-27" target="Q1WShy8X6w7Z_u-XjVrB-6" edge="1">
          <mxGeometry width="50" height="50" relative="1" as="geometry">
            <mxPoint x="-454.5" y="639" as="sourcePoint" />
            <mxPoint x="-422.5" y="427" as="targetPoint" />
          </mxGeometry>
        </mxCell>
        <mxCell id="6uutaqwq0sgEfD3VKp7t-59" value="" style="endArrow=none;html=1;rounded=0;entryX=0.5;entryY=1;entryDx=0;entryDy=0;exitX=0.5;exitY=0;exitDx=0;exitDy=0;" parent="1" source="6uutaqwq0sgEfD3VKp7t-28" target="Q1WShy8X6w7Z_u-XjVrB-6" edge="1">
          <mxGeometry width="50" height="50" relative="1" as="geometry">
            <mxPoint x="-474.5" y="728" as="sourcePoint" />
            <mxPoint x="-397.5" y="427" as="targetPoint" />
          </mxGeometry>
        </mxCell>
        <mxCell id="6uutaqwq0sgEfD3VKp7t-60" value="" style="endArrow=none;html=1;rounded=0;entryX=0.5;entryY=1;entryDx=0;entryDy=0;exitX=0;exitY=0.5;exitDx=0;exitDy=0;" parent="1" source="6uutaqwq0sgEfD3VKp7t-34" target="Q1WShy8X6w7Z_u-XjVrB-7" edge="1">
          <mxGeometry width="50" height="50" relative="1" as="geometry">
            <mxPoint x="-392.5" y="766" as="sourcePoint" />
            <mxPoint x="-397.5" y="427" as="targetPoint" />
            <Array as="points">
              <mxPoint x="-170" y="454" />
            </Array>
          </mxGeometry>
        </mxCell>
        <mxCell id="6uutaqwq0sgEfD3VKp7t-61" value="" style="endArrow=none;html=1;rounded=0;entryX=0.5;entryY=1;entryDx=0;entryDy=0;exitX=0;exitY=0;exitDx=0;exitDy=0;" parent="1" source="6uutaqwq0sgEfD3VKp7t-30" target="Q1WShy8X6w7Z_u-XjVrB-7" edge="1">
          <mxGeometry width="50" height="50" relative="1" as="geometry">
            <mxPoint x="-74.5" y="548" as="sourcePoint" />
            <mxPoint x="-179.5" y="426" as="targetPoint" />
            <Array as="points">
              <mxPoint x="-180" y="494" />
            </Array>
          </mxGeometry>
        </mxCell>
        <mxCell id="6uutaqwq0sgEfD3VKp7t-62" value="" style="endArrow=none;html=1;rounded=0;entryX=0.5;entryY=1;entryDx=0;entryDy=0;exitX=0.5;exitY=0;exitDx=0;exitDy=0;" parent="1" source="6uutaqwq0sgEfD3VKp7t-31" target="Q1WShy8X6w7Z_u-XjVrB-7" edge="1">
          <mxGeometry width="50" height="50" relative="1" as="geometry">
            <mxPoint x="-114.5" y="609" as="sourcePoint" />
            <mxPoint x="-179.5" y="426" as="targetPoint" />
          </mxGeometry>
        </mxCell>
        <mxCell id="6uutaqwq0sgEfD3VKp7t-63" value="" style="endArrow=none;html=1;rounded=0;entryX=0.5;entryY=1;entryDx=0;entryDy=0;exitX=1;exitY=0;exitDx=0;exitDy=0;" parent="1" source="6uutaqwq0sgEfD3VKp7t-32" target="Q1WShy8X6w7Z_u-XjVrB-7" edge="1">
          <mxGeometry width="50" height="50" relative="1" as="geometry">
            <mxPoint x="-164.5" y="658" as="sourcePoint" />
            <mxPoint x="-179.5" y="426" as="targetPoint" />
            <Array as="points">
              <mxPoint x="-200" y="494" />
            </Array>
          </mxGeometry>
        </mxCell>
        <mxCell id="6uutaqwq0sgEfD3VKp7t-64" value="" style="endArrow=none;html=1;rounded=0;entryX=0.5;entryY=1;entryDx=0;entryDy=0;exitX=1;exitY=0.5;exitDx=0;exitDy=0;" parent="1" source="6uutaqwq0sgEfD3VKp7t-33" target="Q1WShy8X6w7Z_u-XjVrB-7" edge="1">
          <mxGeometry width="50" height="50" relative="1" as="geometry">
            <mxPoint x="-222.5" y="609" as="sourcePoint" />
            <mxPoint x="-179.5" y="426" as="targetPoint" />
            <Array as="points">
              <mxPoint x="-210" y="454" />
            </Array>
          </mxGeometry>
        </mxCell>
        <mxCell id="6uutaqwq0sgEfD3VKp7t-65" value="" style="endArrow=none;html=1;rounded=0;entryX=0.5;entryY=1;entryDx=0;entryDy=0;exitX=0;exitY=0;exitDx=0;exitDy=0;" parent="1" source="6uutaqwq0sgEfD3VKp7t-35" target="Q1WShy8X6w7Z_u-XjVrB-25" edge="1">
          <mxGeometry width="50" height="50" relative="1" as="geometry">
            <mxPoint x="225.5" y="530" as="sourcePoint" />
            <mxPoint x="120.5" y="408" as="targetPoint" />
          </mxGeometry>
        </mxCell>
        <mxCell id="6uutaqwq0sgEfD3VKp7t-66" value="" style="endArrow=none;html=1;rounded=0;exitX=0;exitY=0;exitDx=0;exitDy=0;entryX=0.5;entryY=1;entryDx=0;entryDy=0;" parent="1" source="6uutaqwq0sgEfD3VKp7t-42" target="Q1WShy8X6w7Z_u-XjVrB-25" edge="1">
          <mxGeometry width="50" height="50" relative="1" as="geometry">
            <mxPoint x="343.5" y="556" as="sourcePoint" />
            <mxPoint x="140.5" y="426" as="targetPoint" />
            <Array as="points">
              <mxPoint x="160" y="504" />
            </Array>
          </mxGeometry>
        </mxCell>
        <mxCell id="6uutaqwq0sgEfD3VKp7t-67" value="" style="endArrow=none;html=1;rounded=0;entryX=0.5;entryY=1;entryDx=0;entryDy=0;exitX=0;exitY=0;exitDx=0;exitDy=0;" parent="1" source="6uutaqwq0sgEfD3VKp7t-37" target="Q1WShy8X6w7Z_u-XjVrB-25" edge="1">
          <mxGeometry width="50" height="50" relative="1" as="geometry">
            <mxPoint x="310.5" y="646" as="sourcePoint" />
            <mxPoint x="156.5" y="436" as="targetPoint" />
            <Array as="points">
              <mxPoint x="150" y="544" />
            </Array>
          </mxGeometry>
        </mxCell>
        <mxCell id="6uutaqwq0sgEfD3VKp7t-68" value="" style="endArrow=none;html=1;rounded=0;entryX=0.5;entryY=1;entryDx=0;entryDy=0;exitX=1;exitY=0;exitDx=0;exitDy=0;" parent="1" source="6uutaqwq0sgEfD3VKp7t-38" target="Q1WShy8X6w7Z_u-XjVrB-25" edge="1">
          <mxGeometry width="50" height="50" relative="1" as="geometry">
            <mxPoint x="221.5" y="703" as="sourcePoint" />
            <mxPoint x="166.5" y="446" as="targetPoint" />
            <Array as="points">
              <mxPoint x="130" y="544" />
            </Array>
          </mxGeometry>
        </mxCell>
        <mxCell id="6uutaqwq0sgEfD3VKp7t-69" value="" style="endArrow=none;html=1;rounded=0;entryX=0.5;entryY=1;entryDx=0;entryDy=0;exitX=1;exitY=0;exitDx=0;exitDy=0;" parent="1" source="6uutaqwq0sgEfD3VKp7t-39" target="Q1WShy8X6w7Z_u-XjVrB-25" edge="1">
          <mxGeometry width="50" height="50" relative="1" as="geometry">
            <mxPoint x="175.5" y="664" as="sourcePoint" />
            <mxPoint x="176.5" y="456" as="targetPoint" />
            <Array as="points">
              <mxPoint x="120" y="504" />
            </Array>
          </mxGeometry>
        </mxCell>
        <mxCell id="6uutaqwq0sgEfD3VKp7t-70" value="" style="endArrow=none;html=1;rounded=0;entryX=0.5;entryY=1;entryDx=0;entryDy=0;exitX=1;exitY=0;exitDx=0;exitDy=0;" parent="1" source="6uutaqwq0sgEfD3VKp7t-40" target="Q1WShy8X6w7Z_u-XjVrB-25" edge="1">
          <mxGeometry width="50" height="50" relative="1" as="geometry">
            <mxPoint x="103.5" y="589" as="sourcePoint" />
            <mxPoint x="186.5" y="466" as="targetPoint" />
          </mxGeometry>
        </mxCell>
        <mxCell id="6uutaqwq0sgEfD3VKp7t-71" value="" style="endArrow=none;html=1;rounded=0;entryX=0;entryY=0;entryDx=0;entryDy=0;exitX=1;exitY=0.5;exitDx=0;exitDy=0;" parent="1" source="DGbAVhqVMQCF2uaafGu9-5" target="6uutaqwq0sgEfD3VKp7t-43" edge="1">
          <mxGeometry width="50" height="50" relative="1" as="geometry">
            <mxPoint x="113.5" y="599" as="sourcePoint" />
            <mxPoint x="196.5" y="476" as="targetPoint" />
          </mxGeometry>
        </mxCell>
        <mxCell id="6uutaqwq0sgEfD3VKp7t-72" value="" style="endArrow=none;html=1;rounded=0;entryX=0;entryY=1;entryDx=0;entryDy=0;exitX=1;exitY=0.5;exitDx=0;exitDy=0;" parent="1" source="DGbAVhqVMQCF2uaafGu9-5" target="6uutaqwq0sgEfD3VKp7t-41" edge="1">
          <mxGeometry width="50" height="50" relative="1" as="geometry">
            <mxPoint x="488.5" y="425" as="sourcePoint" />
            <mxPoint x="578.5" y="454" as="targetPoint" />
          </mxGeometry>
        </mxCell>
        <mxCell id="6uutaqwq0sgEfD3VKp7t-73" value="" style="endArrow=none;html=1;rounded=0;entryX=0;entryY=0.5;entryDx=0;entryDy=0;exitX=1;exitY=0.5;exitDx=0;exitDy=0;" parent="1" source="Q1WShy8X6w7Z_u-XjVrB-33" target="6uutaqwq0sgEfD3VKp7t-12" edge="1">
          <mxGeometry width="50" height="50" relative="1" as="geometry">
            <mxPoint x="488.5" y="385" as="sourcePoint" />
            <mxPoint x="591.5" y="377" as="targetPoint" />
          </mxGeometry>
        </mxCell>
        <mxCell id="6uutaqwq0sgEfD3VKp7t-74" value="" style="endArrow=none;html=1;rounded=0;entryX=0;entryY=0.5;entryDx=0;entryDy=0;exitX=1;exitY=0.5;exitDx=0;exitDy=0;" parent="1" source="Q1WShy8X6w7Z_u-XjVrB-33" target="6uutaqwq0sgEfD3VKp7t-13" edge="1">
          <mxGeometry width="50" height="50" relative="1" as="geometry">
            <mxPoint x="470.5" y="186" as="sourcePoint" />
            <mxPoint x="570.5" y="125" as="targetPoint" />
          </mxGeometry>
        </mxCell>
        <mxCell id="6uutaqwq0sgEfD3VKp7t-76" value="" style="endArrow=none;html=1;rounded=0;entryX=0;entryY=1;entryDx=0;entryDy=0;exitX=1;exitY=0.5;exitDx=0;exitDy=0;" parent="1" source="N02JDObSmD6Pd7DJaybr-18" target="6uutaqwq0sgEfD3VKp7t-10" edge="1">
          <mxGeometry width="50" height="50" relative="1" as="geometry">
            <mxPoint x="460" y="-116" as="sourcePoint" />
            <mxPoint x="560" y="-177" as="targetPoint" />
          </mxGeometry>
        </mxCell>
        <mxCell id="6uutaqwq0sgEfD3VKp7t-77" value="" style="endArrow=none;html=1;rounded=0;entryX=0;entryY=0;entryDx=0;entryDy=0;exitX=1;exitY=0.5;exitDx=0;exitDy=0;" parent="1" source="N02JDObSmD6Pd7DJaybr-18" target="6uutaqwq0sgEfD3VKp7t-11" edge="1">
          <mxGeometry width="50" height="50" relative="1" as="geometry">
            <mxPoint x="478" y="-327" as="sourcePoint" />
            <mxPoint x="560" y="-392" as="targetPoint" />
          </mxGeometry>
        </mxCell>
        <mxCell id="6uutaqwq0sgEfD3VKp7t-78" value="" style="endArrow=none;html=1;rounded=0;entryX=1;entryY=0.5;entryDx=0;entryDy=0;exitX=0.5;exitY=0;exitDx=0;exitDy=0;" parent="1" source="N02JDObSmD6Pd7DJaybr-49" target="6uutaqwq0sgEfD3VKp7t-44" edge="1">
          <mxGeometry width="50" height="50" relative="1" as="geometry">
            <mxPoint x="478" y="-327" as="sourcePoint" />
            <mxPoint x="560" y="-392" as="targetPoint" />
            <Array as="points">
              <mxPoint x="-220" y="-616" />
            </Array>
          </mxGeometry>
        </mxCell>
        <mxCell id="6uutaqwq0sgEfD3VKp7t-79" value="" style="endArrow=none;html=1;rounded=0;entryX=1;entryY=1;entryDx=0;entryDy=0;exitX=0.5;exitY=0;exitDx=0;exitDy=0;" parent="1" source="N02JDObSmD6Pd7DJaybr-49" target="6uutaqwq0sgEfD3VKp7t-45" edge="1">
          <mxGeometry width="50" height="50" relative="1" as="geometry">
            <mxPoint x="-180" y="-566" as="sourcePoint" />
            <mxPoint x="-323" y="-607" as="targetPoint" />
            <Array as="points">
              <mxPoint x="-200" y="-656" />
            </Array>
          </mxGeometry>
        </mxCell>
        <mxCell id="6uutaqwq0sgEfD3VKp7t-80" value="" style="endArrow=none;html=1;rounded=0;entryX=1;entryY=1;entryDx=0;entryDy=0;exitX=0.5;exitY=0;exitDx=0;exitDy=0;" parent="1" source="N02JDObSmD6Pd7DJaybr-49" target="6uutaqwq0sgEfD3VKp7t-46" edge="1">
          <mxGeometry width="50" height="50" relative="1" as="geometry">
            <mxPoint x="-170" y="-556" as="sourcePoint" />
            <mxPoint x="-277" y="-674" as="targetPoint" />
            <Array as="points">
              <mxPoint x="-180" y="-686" />
            </Array>
          </mxGeometry>
        </mxCell>
        <mxCell id="6uutaqwq0sgEfD3VKp7t-81" value="" style="endArrow=none;html=1;rounded=0;entryX=0;entryY=1;entryDx=0;entryDy=0;exitX=0.5;exitY=0;exitDx=0;exitDy=0;" parent="1" source="N02JDObSmD6Pd7DJaybr-49" target="6uutaqwq0sgEfD3VKp7t-48" edge="1">
          <mxGeometry width="50" height="50" relative="1" as="geometry">
            <mxPoint x="-160" y="-546" as="sourcePoint" />
            <mxPoint x="-130" y="-716" as="targetPoint" />
            <Array as="points">
              <mxPoint x="-160" y="-686" />
            </Array>
          </mxGeometry>
        </mxCell>
        <mxCell id="6uutaqwq0sgEfD3VKp7t-82" value="" style="endArrow=none;html=1;rounded=0;entryX=0;entryY=1;entryDx=0;entryDy=0;exitX=0.5;exitY=0;exitDx=0;exitDy=0;" parent="1" source="N02JDObSmD6Pd7DJaybr-49" target="6uutaqwq0sgEfD3VKp7t-50" edge="1">
          <mxGeometry width="50" height="50" relative="1" as="geometry">
            <mxPoint x="-150" y="-536" as="sourcePoint" />
            <mxPoint x="-115" y="-723" as="targetPoint" />
            <Array as="points">
              <mxPoint x="-140" y="-656" />
            </Array>
          </mxGeometry>
        </mxCell>
        <mxCell id="6uutaqwq0sgEfD3VKp7t-83" value="" style="endArrow=none;html=1;rounded=0;entryX=0;entryY=0.5;entryDx=0;entryDy=0;exitX=0.5;exitY=0;exitDx=0;exitDy=0;" parent="1" source="N02JDObSmD6Pd7DJaybr-49" target="6uutaqwq0sgEfD3VKp7t-51" edge="1">
          <mxGeometry width="50" height="50" relative="1" as="geometry">
            <mxPoint x="-140" y="-526" as="sourcePoint" />
            <mxPoint x="-57" y="-674" as="targetPoint" />
            <Array as="points">
              <mxPoint x="-120" y="-616" />
            </Array>
          </mxGeometry>
        </mxCell>
        <mxCell id="6uutaqwq0sgEfD3VKp7t-84" value="" style="endArrow=none;html=1;rounded=0;entryX=0.5;entryY=1;entryDx=0;entryDy=0;" parent="1" target="6uutaqwq0sgEfD3VKp7t-6" edge="1">
          <mxGeometry width="50" height="50" relative="1" as="geometry">
            <mxPoint x="128" y="-336" as="sourcePoint" />
            <mxPoint x="-17" y="-607" as="targetPoint" />
          </mxGeometry>
        </mxCell>
        <mxCell id="6uutaqwq0sgEfD3VKp7t-85" value="" style="endArrow=none;html=1;rounded=0;entryX=0;entryY=1;entryDx=0;entryDy=0;exitX=0.5;exitY=0;exitDx=0;exitDy=0;" parent="1" source="N02JDObSmD6Pd7DJaybr-2" target="6uutaqwq0sgEfD3VKp7t-5" edge="1">
          <mxGeometry width="50" height="50" relative="1" as="geometry">
            <mxPoint x="111" y="-326" as="sourcePoint" />
            <mxPoint x="93" y="-499" as="targetPoint" />
            <Array as="points">
              <mxPoint x="128" y="-526" />
            </Array>
          </mxGeometry>
        </mxCell>
        <mxCell id="6uutaqwq0sgEfD3VKp7t-86" value="" style="endArrow=none;html=1;rounded=0;entryX=0;entryY=1;entryDx=0;entryDy=0;exitX=0.5;exitY=0;exitDx=0;exitDy=0;" parent="1" source="N02JDObSmD6Pd7DJaybr-2" target="6uutaqwq0sgEfD3VKp7t-7" edge="1">
          <mxGeometry width="50" height="50" relative="1" as="geometry">
            <mxPoint x="136" y="-326" as="sourcePoint" />
            <mxPoint x="143" y="-442" as="targetPoint" />
            <Array as="points">
              <mxPoint x="140" y="-516" />
            </Array>
          </mxGeometry>
        </mxCell>
        <mxCell id="6uutaqwq0sgEfD3VKp7t-87" value="" style="endArrow=none;html=1;rounded=0;entryX=0;entryY=0.5;entryDx=0;entryDy=0;exitX=0.5;exitY=0;exitDx=0;exitDy=0;" parent="1" source="N02JDObSmD6Pd7DJaybr-2" target="6uutaqwq0sgEfD3VKp7t-9" edge="1">
          <mxGeometry width="50" height="50" relative="1" as="geometry">
            <mxPoint x="136" y="-326" as="sourcePoint" />
            <mxPoint x="201" y="-512" as="targetPoint" />
            <Array as="points">
              <mxPoint x="160" y="-506" />
            </Array>
          </mxGeometry>
        </mxCell>
        <mxCell id="6uutaqwq0sgEfD3VKp7t-88" value="" style="endArrow=none;html=1;rounded=0;entryX=0;entryY=0.5;entryDx=0;entryDy=0;exitX=0.5;exitY=0;exitDx=0;exitDy=0;" parent="1" source="N02JDObSmD6Pd7DJaybr-2" target="6uutaqwq0sgEfD3VKp7t-8" edge="1">
          <mxGeometry width="50" height="50" relative="1" as="geometry">
            <mxPoint x="136" y="-326" as="sourcePoint" />
            <mxPoint x="207" y="-447" as="targetPoint" />
            <Array as="points">
              <mxPoint x="170" y="-446" />
            </Array>
          </mxGeometry>
        </mxCell>
        <mxCell id="6uutaqwq0sgEfD3VKp7t-89" value="" style="endArrow=none;html=1;rounded=0;entryX=0;entryY=0.5;entryDx=0;entryDy=0;exitX=0.5;exitY=0;exitDx=0;exitDy=0;" parent="1" source="N02JDObSmD6Pd7DJaybr-2" target="6uutaqwq0sgEfD3VKp7t-3" edge="1">
          <mxGeometry width="50" height="50" relative="1" as="geometry">
            <mxPoint x="161" y="-326" as="sourcePoint" />
            <mxPoint x="321" y="-469" as="targetPoint" />
            <Array as="points">
              <mxPoint x="170" y="-376" />
            </Array>
          </mxGeometry>
        </mxCell>
        <mxCell id="6uutaqwq0sgEfD3VKp7t-90" value="" style="endArrow=none;html=1;rounded=0;entryX=1.018;entryY=0.544;entryDx=0;entryDy=0;exitX=0;exitY=0.5;exitDx=0;exitDy=0;entryPerimeter=0;" parent="1" source="N02JDObSmD6Pd7DJaybr-1" target="6uutaqwq0sgEfD3VKp7t-1" edge="1">
          <mxGeometry width="50" height="50" relative="1" as="geometry">
            <mxPoint x="111" y="-326" as="sourcePoint" />
            <mxPoint x="93" y="-499" as="targetPoint" />
          </mxGeometry>
        </mxCell>
        <mxCell id="6uutaqwq0sgEfD3VKp7t-91" value="" style="endArrow=none;html=1;rounded=0;entryX=1;entryY=0.5;entryDx=0;entryDy=0;exitX=0;exitY=0;exitDx=0;exitDy=0;" parent="1" source="N02JDObSmD6Pd7DJaybr-50" target="6uutaqwq0sgEfD3VKp7t-21" edge="1">
          <mxGeometry width="50" height="50" relative="1" as="geometry">
            <mxPoint x="-200.5" y="-25" as="sourcePoint" />
            <mxPoint x="-270.5" y="-34" as="targetPoint" />
          </mxGeometry>
        </mxCell>
        <mxCell id="6uutaqwq0sgEfD3VKp7t-92" value="" style="endArrow=none;html=1;rounded=0;entryX=1;entryY=0;entryDx=0;entryDy=0;exitX=0.5;exitY=1;exitDx=0;exitDy=0;" parent="1" source="N02JDObSmD6Pd7DJaybr-28" target="6uutaqwq0sgEfD3VKp7t-15" edge="1">
          <mxGeometry width="50" height="50" relative="1" as="geometry">
            <mxPoint x="-211" y="-327" as="sourcePoint" />
            <mxPoint x="-281" y="-336" as="targetPoint" />
          </mxGeometry>
        </mxCell>
        <mxCell id="6uutaqwq0sgEfD3VKp7t-93" value="" style="endArrow=none;html=1;rounded=0;entryX=1;entryY=0;entryDx=0;entryDy=0;exitX=0.5;exitY=1;exitDx=0;exitDy=0;" parent="1" source="N02JDObSmD6Pd7DJaybr-28" target="6uutaqwq0sgEfD3VKp7t-17" edge="1">
          <mxGeometry width="50" height="50" relative="1" as="geometry">
            <mxPoint x="-98" y="-206" as="sourcePoint" />
            <mxPoint x="-170" y="-157" as="targetPoint" />
          </mxGeometry>
        </mxCell>
        <mxCell id="6uutaqwq0sgEfD3VKp7t-94" value="" style="endArrow=none;html=1;rounded=0;entryX=1;entryY=0;entryDx=0;entryDy=0;exitX=0.5;exitY=1;exitDx=0;exitDy=0;" parent="1" source="N02JDObSmD6Pd7DJaybr-28" target="6uutaqwq0sgEfD3VKp7t-16" edge="1">
          <mxGeometry width="50" height="50" relative="1" as="geometry">
            <mxPoint x="-88" y="-196" as="sourcePoint" />
            <mxPoint x="-193" y="-98" as="targetPoint" />
          </mxGeometry>
        </mxCell>
        <mxCell id="6uutaqwq0sgEfD3VKp7t-95" value="" style="endArrow=none;html=1;rounded=0;entryX=0.5;entryY=0;entryDx=0;entryDy=0;exitX=0.5;exitY=1;exitDx=0;exitDy=0;" parent="1" source="N02JDObSmD6Pd7DJaybr-28" target="6uutaqwq0sgEfD3VKp7t-14" edge="1">
          <mxGeometry width="50" height="50" relative="1" as="geometry">
            <mxPoint x="-78" y="-186" as="sourcePoint" />
            <mxPoint x="-156" y="-36" as="targetPoint" />
          </mxGeometry>
        </mxCell>
        <mxCell id="6uutaqwq0sgEfD3VKp7t-96" value="" style="endArrow=none;html=1;rounded=0;entryX=0;entryY=0;entryDx=0;entryDy=0;exitX=0.5;exitY=1;exitDx=0;exitDy=0;" parent="1" source="N02JDObSmD6Pd7DJaybr-28" target="6uutaqwq0sgEfD3VKp7t-20" edge="1">
          <mxGeometry width="50" height="50" relative="1" as="geometry">
            <mxPoint x="-68" y="-176" as="sourcePoint" />
            <mxPoint x="-48" y="-6" as="targetPoint" />
          </mxGeometry>
        </mxCell>
        <mxCell id="6uutaqwq0sgEfD3VKp7t-97" value="" style="endArrow=none;html=1;rounded=0;entryX=0;entryY=0;entryDx=0;entryDy=0;exitX=0.5;exitY=1;exitDx=0;exitDy=0;" parent="1" source="N02JDObSmD6Pd7DJaybr-28" target="6uutaqwq0sgEfD3VKp7t-18" edge="1">
          <mxGeometry width="50" height="50" relative="1" as="geometry">
            <mxPoint x="-58" y="-166" as="sourcePoint" />
            <mxPoint x="21" y="-8" as="targetPoint" />
          </mxGeometry>
        </mxCell>
        <mxCell id="6uutaqwq0sgEfD3VKp7t-98" value="" style="endArrow=none;html=1;rounded=0;entryX=0;entryY=0;entryDx=0;entryDy=0;exitX=0.5;exitY=1;exitDx=0;exitDy=0;" parent="1" source="N02JDObSmD6Pd7DJaybr-28" target="6uutaqwq0sgEfD3VKp7t-19" edge="1">
          <mxGeometry width="50" height="50" relative="1" as="geometry">
            <mxPoint x="-48" y="-156" as="sourcePoint" />
            <mxPoint x="33" y="-98" as="targetPoint" />
          </mxGeometry>
        </mxCell>
        <mxCell id="B7ATnj_e5cJyWT7mAHtC-1" value="Despesas" style="rounded=1;arcSize=0;whiteSpace=wrap;html=1;align=center;" parent="1" vertex="1">
          <mxGeometry x="730" y="505.25" width="100" height="40" as="geometry" />
        </mxCell>
        <mxCell id="B7ATnj_e5cJyWT7mAHtC-2" value="iddespesas" style="ellipse;whiteSpace=wrap;html=1;fontStyle=4" parent="1" vertex="1">
          <mxGeometry x="920" y="392.75" width="90" height="57" as="geometry" />
        </mxCell>
        <mxCell id="B7ATnj_e5cJyWT7mAHtC-3" value="descrição" style="ellipse;whiteSpace=wrap;html=1;" parent="1" vertex="1">
          <mxGeometry x="920" y="623.25" width="90" height="57" as="geometry" />
        </mxCell>
        <mxCell id="B7ATnj_e5cJyWT7mAHtC-4" value="" style="endArrow=none;html=1;rounded=0;entryX=0;entryY=0.5;entryDx=0;entryDy=0;exitX=1;exitY=0.5;exitDx=0;exitDy=0;" parent="1" source="B7ATnj_e5cJyWT7mAHtC-1" target="B7ATnj_e5cJyWT7mAHtC-2" edge="1">
          <mxGeometry width="50" height="50" relative="1" as="geometry">
            <mxPoint x="840" y="693.75" as="sourcePoint" />
            <mxPoint x="1061.5" y="758.75" as="targetPoint" />
          </mxGeometry>
        </mxCell>
        <mxCell id="B7ATnj_e5cJyWT7mAHtC-5" value="" style="endArrow=none;html=1;rounded=0;entryX=0;entryY=0.5;entryDx=0;entryDy=0;exitX=1;exitY=0.5;exitDx=0;exitDy=0;" parent="1" source="B7ATnj_e5cJyWT7mAHtC-1" target="B7ATnj_e5cJyWT7mAHtC-3" edge="1">
          <mxGeometry width="50" height="50" relative="1" as="geometry">
            <mxPoint x="840" y="693.75" as="sourcePoint" />
            <mxPoint x="1040.5" y="506.75" as="targetPoint" />
          </mxGeometry>
        </mxCell>
        <mxCell id="B7ATnj_e5cJyWT7mAHtC-9" value="têm" style="shape=rhombus;perimeter=rhombusPerimeter;whiteSpace=wrap;html=1;align=center;" parent="1" vertex="1">
          <mxGeometry x="390" y="508" width="78" height="39" as="geometry" />
        </mxCell>
        <mxCell id="B7ATnj_e5cJyWT7mAHtC-10" value="" style="endArrow=none;html=1;rounded=0;entryX=0.5;entryY=1;entryDx=0;entryDy=0;exitX=0.5;exitY=0;exitDx=0;exitDy=0;" parent="1" source="B7ATnj_e5cJyWT7mAHtC-9" target="DGbAVhqVMQCF2uaafGu9-5" edge="1">
          <mxGeometry relative="1" as="geometry">
            <mxPoint x="620" y="584" as="sourcePoint" />
            <mxPoint x="680" y="534" as="targetPoint" />
          </mxGeometry>
        </mxCell>
        <mxCell id="B7ATnj_e5cJyWT7mAHtC-11" value="1" style="resizable=0;html=1;whiteSpace=wrap;align=right;verticalAlign=bottom;" parent="B7ATnj_e5cJyWT7mAHtC-10" connectable="0" vertex="1">
          <mxGeometry x="1" relative="1" as="geometry">
            <mxPoint x="1" y="16" as="offset" />
          </mxGeometry>
        </mxCell>
        <mxCell id="B7ATnj_e5cJyWT7mAHtC-12" value="idcategoriapag" style="ellipse;whiteSpace=wrap;html=1;fontStyle=4" parent="1" vertex="1">
          <mxGeometry x="910" y="472.25" width="110" height="57" as="geometry" />
        </mxCell>
        <mxCell id="B7ATnj_e5cJyWT7mAHtC-13" value="" style="endArrow=none;html=1;rounded=0;entryX=0;entryY=0.5;entryDx=0;entryDy=0;exitX=1;exitY=0.5;exitDx=0;exitDy=0;" parent="1" source="B7ATnj_e5cJyWT7mAHtC-1" target="B7ATnj_e5cJyWT7mAHtC-12" edge="1">
          <mxGeometry width="50" height="50" relative="1" as="geometry">
            <mxPoint x="840" y="535.25" as="sourcePoint" />
            <mxPoint x="870" y="425.25" as="targetPoint" />
          </mxGeometry>
        </mxCell>
        <mxCell id="B7ATnj_e5cJyWT7mAHtC-14" value="valor" style="ellipse;whiteSpace=wrap;html=1;" parent="1" vertex="1">
          <mxGeometry x="910" y="543.25" width="110" height="57" as="geometry" />
        </mxCell>
        <mxCell id="B7ATnj_e5cJyWT7mAHtC-15" value="" style="endArrow=none;html=1;rounded=0;entryX=0;entryY=0.5;entryDx=0;entryDy=0;exitX=1;exitY=0.5;exitDx=0;exitDy=0;" parent="1" source="B7ATnj_e5cJyWT7mAHtC-1" target="B7ATnj_e5cJyWT7mAHtC-14" edge="1">
          <mxGeometry width="50" height="50" relative="1" as="geometry">
            <mxPoint x="840" y="535.25" as="sourcePoint" />
            <mxPoint x="910" y="511.25" as="targetPoint" />
          </mxGeometry>
        </mxCell>
        <mxCell id="Q7QUMhgZAkPJL-zKM7Zf-3" value="data" style="ellipse;whiteSpace=wrap;html=1;" parent="1" vertex="1">
          <mxGeometry x="610" y="70" width="90" height="57" as="geometry" />
        </mxCell>
        <mxCell id="Q7QUMhgZAkPJL-zKM7Zf-4" value="" style="endArrow=none;html=1;rounded=0;entryX=0.009;entryY=0.609;entryDx=0;entryDy=0;exitX=1;exitY=0.5;exitDx=0;exitDy=0;entryPerimeter=0;" parent="1" source="Q1WShy8X6w7Z_u-XjVrB-33" target="Q7QUMhgZAkPJL-zKM7Zf-3" edge="1">
          <mxGeometry width="50" height="50" relative="1" as="geometry">
            <mxPoint x="463" y="214" as="sourcePoint" />
            <mxPoint x="589" y="248" as="targetPoint" />
          </mxGeometry>
        </mxCell>
        <mxCell id="Q7QUMhgZAkPJL-zKM7Zf-11" value="" style="endArrow=none;html=1;rounded=0;entryX=0;entryY=0.5;entryDx=0;entryDy=0;exitX=1;exitY=0.5;exitDx=0;exitDy=0;" parent="1" source="B7ATnj_e5cJyWT7mAHtC-9" target="B7ATnj_e5cJyWT7mAHtC-1" edge="1">
          <mxGeometry relative="1" as="geometry">
            <mxPoint x="1479" y="-605" as="sourcePoint" />
            <mxPoint x="790" y="515" as="targetPoint" />
            <Array as="points" />
          </mxGeometry>
        </mxCell>
        <mxCell id="Q7QUMhgZAkPJL-zKM7Zf-12" value="N" style="resizable=0;html=1;whiteSpace=wrap;align=right;verticalAlign=bottom;" parent="Q7QUMhgZAkPJL-zKM7Zf-11" connectable="0" vertex="1">
          <mxGeometry x="1" relative="1" as="geometry">
            <mxPoint y="2" as="offset" />
          </mxGeometry>
        </mxCell>
        <mxCell id="wnP8cBAeKXxyu8cZSzrt-1" value="têm" style="shape=rhombus;perimeter=rhombusPerimeter;whiteSpace=wrap;html=1;align=center;" parent="1" vertex="1">
          <mxGeometry x="163.5" y="184" width="78" height="39" as="geometry" />
        </mxCell>
        <mxCell id="wnP8cBAeKXxyu8cZSzrt-3" value="" style="endArrow=none;html=1;rounded=0;entryX=1;entryY=0.25;entryDx=0;entryDy=0;exitX=0;exitY=0.5;exitDx=0;exitDy=0;" parent="1" source="wnP8cBAeKXxyu8cZSzrt-1" target="N02JDObSmD6Pd7DJaybr-50" edge="1">
          <mxGeometry relative="1" as="geometry">
            <mxPoint x="94.5" y="171" as="sourcePoint" />
            <mxPoint x="8.5" y="233" as="targetPoint" />
          </mxGeometry>
        </mxCell>
        <mxCell id="wnP8cBAeKXxyu8cZSzrt-4" value="1" style="resizable=0;html=1;whiteSpace=wrap;align=right;verticalAlign=bottom;" parent="wnP8cBAeKXxyu8cZSzrt-3" connectable="0" vertex="1">
          <mxGeometry x="1" relative="1" as="geometry">
            <mxPoint x="9" y="1" as="offset" />
          </mxGeometry>
        </mxCell>
        <mxCell id="wnP8cBAeKXxyu8cZSzrt-5" value="" style="endArrow=none;html=1;rounded=0;entryX=0;entryY=0.5;entryDx=0;entryDy=0;exitX=1;exitY=0.5;exitDx=0;exitDy=0;" parent="1" source="wnP8cBAeKXxyu8cZSzrt-1" target="Q1WShy8X6w7Z_u-XjVrB-33" edge="1">
          <mxGeometry relative="1" as="geometry">
            <mxPoint x="276.5" y="178" as="sourcePoint" />
            <mxPoint x="357.5" y="107" as="targetPoint" />
          </mxGeometry>
        </mxCell>
        <mxCell id="wnP8cBAeKXxyu8cZSzrt-6" value="N" style="resizable=0;html=1;whiteSpace=wrap;align=right;verticalAlign=bottom;" parent="wnP8cBAeKXxyu8cZSzrt-5" connectable="0" vertex="1">
          <mxGeometry x="1" relative="1" as="geometry">
            <mxPoint x="1" y="2" as="offset" />
          </mxGeometry>
        </mxCell>
        <mxCell id="wnP8cBAeKXxyu8cZSzrt-7" value="" style="endArrow=none;html=1;rounded=0;entryX=0.75;entryY=1;entryDx=0;entryDy=0;exitX=0;exitY=0;exitDx=0;exitDy=0;" parent="1" source="wnP8cBAeKXxyu8cZSzrt-9" target="N02JDObSmD6Pd7DJaybr-2" edge="1">
          <mxGeometry relative="1" as="geometry">
            <mxPoint x="595.5" y="-69" as="sourcePoint" />
            <mxPoint x="163.5" y="-79" as="targetPoint" />
          </mxGeometry>
        </mxCell>
        <mxCell id="wnP8cBAeKXxyu8cZSzrt-8" value="1" style="resizable=0;html=1;whiteSpace=wrap;align=right;verticalAlign=bottom;" parent="wnP8cBAeKXxyu8cZSzrt-7" connectable="0" vertex="1">
          <mxGeometry x="1" relative="1" as="geometry">
            <mxPoint x="15" y="19" as="offset" />
          </mxGeometry>
        </mxCell>
        <mxCell id="wnP8cBAeKXxyu8cZSzrt-9" value="têm" style="shape=rhombus;perimeter=rhombusPerimeter;whiteSpace=wrap;html=1;align=center;" parent="1" vertex="1">
          <mxGeometry x="232" y="-30" width="78" height="39" as="geometry" />
        </mxCell>
        <mxCell id="wnP8cBAeKXxyu8cZSzrt-10" value="" style="endArrow=none;html=1;rounded=0;entryX=0.25;entryY=0;entryDx=0;entryDy=0;exitX=1;exitY=1;exitDx=0;exitDy=0;" parent="1" source="wnP8cBAeKXxyu8cZSzrt-9" target="Q1WShy8X6w7Z_u-XjVrB-33" edge="1">
          <mxGeometry relative="1" as="geometry">
            <mxPoint x="252" y="214" as="sourcePoint" />
            <mxPoint x="378" y="214" as="targetPoint" />
          </mxGeometry>
        </mxCell>
        <mxCell id="wnP8cBAeKXxyu8cZSzrt-11" value="N" style="resizable=0;html=1;whiteSpace=wrap;align=right;verticalAlign=bottom;" parent="wnP8cBAeKXxyu8cZSzrt-10" connectable="0" vertex="1">
          <mxGeometry x="1" relative="1" as="geometry">
            <mxPoint x="-4" y="2" as="offset" />
          </mxGeometry>
        </mxCell>
        <mxCell id="wnP8cBAeKXxyu8cZSzrt-12" value="&lt;u&gt;idfuncionario&lt;/u&gt;" style="ellipse;whiteSpace=wrap;html=1;" parent="1" vertex="1">
          <mxGeometry x="585" y="209" width="90" height="57" as="geometry" />
        </mxCell>
        <mxCell id="wnP8cBAeKXxyu8cZSzrt-13" value="&lt;u&gt;idloja&lt;/u&gt;" style="ellipse;whiteSpace=wrap;html=1;" parent="1" vertex="1">
          <mxGeometry x="611" y="140" width="90" height="57" as="geometry" />
        </mxCell>
        <mxCell id="wnP8cBAeKXxyu8cZSzrt-14" value="" style="endArrow=none;html=1;rounded=0;entryX=0;entryY=0.5;entryDx=0;entryDy=0;exitX=1;exitY=0.5;exitDx=0;exitDy=0;" parent="1" source="Q1WShy8X6w7Z_u-XjVrB-33" target="wnP8cBAeKXxyu8cZSzrt-13" edge="1">
          <mxGeometry width="50" height="50" relative="1" as="geometry">
            <mxPoint x="478" y="214" as="sourcePoint" />
            <mxPoint x="621" y="115" as="targetPoint" />
          </mxGeometry>
        </mxCell>
        <mxCell id="wnP8cBAeKXxyu8cZSzrt-15" value="" style="endArrow=none;html=1;rounded=0;entryX=0;entryY=0.5;entryDx=0;entryDy=0;exitX=1;exitY=0.5;exitDx=0;exitDy=0;" parent="1" source="Q1WShy8X6w7Z_u-XjVrB-33" target="wnP8cBAeKXxyu8cZSzrt-12" edge="1">
          <mxGeometry width="50" height="50" relative="1" as="geometry">
            <mxPoint x="488" y="224" as="sourcePoint" />
            <mxPoint x="631" y="125" as="targetPoint" />
          </mxGeometry>
        </mxCell>
        <mxCell id="wnP8cBAeKXxyu8cZSzrt-16" value="idcontrato" style="ellipse;whiteSpace=wrap;html=1;fontStyle=4" parent="1" vertex="1">
          <mxGeometry x="-490" y="240" width="90" height="57" as="geometry" />
        </mxCell>
        <mxCell id="wnP8cBAeKXxyu8cZSzrt-17" value="" style="endArrow=none;html=1;rounded=0;entryX=1;entryY=0.5;entryDx=0;entryDy=0;exitX=0;exitY=1;exitDx=0;exitDy=0;" parent="1" source="N02JDObSmD6Pd7DJaybr-50" target="wnP8cBAeKXxyu8cZSzrt-16" edge="1">
          <mxGeometry width="50" height="50" relative="1" as="geometry">
            <mxPoint x="-358" y="194" as="sourcePoint" />
            <mxPoint x="-377" y="153" as="targetPoint" />
          </mxGeometry>
        </mxCell>
        <mxCell id="wnP8cBAeKXxyu8cZSzrt-18" value="idpiso" style="ellipse;whiteSpace=wrap;html=1;fontStyle=4" parent="1" vertex="1">
          <mxGeometry x="-567" y="171" width="77" height="60" as="geometry" />
        </mxCell>
        <mxCell id="wnP8cBAeKXxyu8cZSzrt-19" value="" style="endArrow=none;html=1;rounded=0;entryX=1;entryY=0.5;entryDx=0;entryDy=0;exitX=0;exitY=0.5;exitDx=0;exitDy=0;" parent="1" source="N02JDObSmD6Pd7DJaybr-50" target="wnP8cBAeKXxyu8cZSzrt-18" edge="1">
          <mxGeometry width="50" height="50" relative="1" as="geometry">
            <mxPoint x="-358" y="194" as="sourcePoint" />
            <mxPoint x="-377" y="153" as="targetPoint" />
          </mxGeometry>
        </mxCell>
        <mxCell id="JDcaRfhLGCbelhrYetTn-1" value="data" style="ellipse;whiteSpace=wrap;html=1;" vertex="1" parent="1">
          <mxGeometry x="860" y="680.25" width="90" height="57" as="geometry" />
        </mxCell>
        <mxCell id="JDcaRfhLGCbelhrYetTn-2" value="" style="endArrow=none;html=1;rounded=0;entryX=0;entryY=0;entryDx=0;entryDy=0;exitX=1;exitY=0.5;exitDx=0;exitDy=0;" edge="1" parent="1" source="B7ATnj_e5cJyWT7mAHtC-1" target="JDcaRfhLGCbelhrYetTn-1">
          <mxGeometry width="50" height="50" relative="1" as="geometry">
            <mxPoint x="840" y="535" as="sourcePoint" />
            <mxPoint x="930" y="662" as="targetPoint" />
          </mxGeometry>
        </mxCell>
      </root>
    </mxGraphModel>
  </diagram>
</mxfile>
